<?xml version="1.0" encoding="UTF-8"?>
<svg version="1.1" xmlns="http://www.w3.org/2000/svg" width="512" height="512">
<path d="M0 0 C1.72267073 -0.00302288 3.44534011 -0.00691305 5.16800714 -0.01159257 C9.88845609 -0.02186386 14.60882902 -0.01969294 19.32928419 -0.01541197 C24.4255451 -0.01294315 29.52178778 -0.02196091 34.61804199 -0.02944946 C44.59749026 -0.04219456 54.57691162 -0.04399035 64.55636665 -0.0416492 C72.6696024 -0.03986551 80.78282999 -0.04161678 88.89606476 -0.04587364 C90.05119295 -0.04646883 91.20632114 -0.04706402 92.39645322 -0.04767724 C94.74319091 -0.04888901 97.08992859 -0.05010315 99.43666628 -0.05131962 C121.44190177 -0.06219464 143.44712193 -0.06003297 165.45235828 -0.05393478 C185.57331995 -0.04876684 205.69423319 -0.06001789 225.81518528 -0.07903299 C246.48459438 -0.09841636 267.15398058 -0.10666644 287.82339883 -0.10290974 C299.42394622 -0.10099831 311.0244524 -0.1034796 322.62499237 -0.11762428 C332.50180516 -0.12954546 342.37855138 -0.13093474 352.2553651 -0.11883412 C357.29189415 -0.11295037 362.32830148 -0.11183207 367.36482239 -0.12383652 C371.98140974 -0.13471189 376.59777398 -0.13157227 381.21435097 -0.11757483 C382.87850133 -0.11493244 384.54266926 -0.11727995 386.20680234 -0.1253107 C404.98008344 -0.20957011 419.0954714 3.35220051 433.1362915 16.26069641 C444.6123167 28.33861105 448.45193012 41.51740254 448.40371704 57.8094635 C448.40824815 58.94320853 448.41277927 60.07695355 448.41744769 61.24505448 C448.43006678 65.02863069 448.4284729 68.81206248 448.42681885 72.59565735 C448.43172138 75.31477904 448.43955539 78.03389073 448.44717407 80.75300598 C448.46374377 87.36356757 448.46928179 93.97409347 448.47039883 100.58467409 C448.4713512 105.96145077 448.47547093 111.33821574 448.48180008 116.71498871 C448.49940136 131.9798006 448.50864067 147.24458443 448.50713913 162.50940654 C448.50701926 163.74222764 448.50701926 163.74222764 448.50689697 164.99995422 C448.50681521 165.82284558 448.50673345 166.64573694 448.50664921 167.4935644 C448.50583659 180.82470254 448.52497113 194.15572762 448.55317371 207.48683307 C448.5819445 221.19536924 448.5957117 234.90385035 448.59398615 248.61241746 C448.59332371 256.30060241 448.59875202 263.98866882 448.62034225 271.67682648 C448.63860938 278.22326998 448.64285624 284.7695412 448.62932341 291.31599924 C448.62282135 294.65145665 448.6247755 297.98631621 448.64002991 301.32178497 C448.74926348 326.86867013 448.74926348 326.86867013 444.1362915 337.26069641 C443.76872931 338.16282742 443.40116711 339.06495842 443.02246666 339.99442673 C437.46835629 353.12902133 426.01379795 361.88242429 413.3237915 367.57319641 C402.8700505 371.33997154 391.60754723 371.55558978 380.61334229 371.48774719 C379.34333374 371.48803925 378.0733252 371.4883313 376.76483154 371.4886322 C373.33182679 371.48919852 369.89896607 371.47756329 366.46599436 371.46348429 C362.85991583 371.45085455 359.25383283 371.4497969 355.6477356 371.44743347 C348.84122159 371.44125426 342.03477298 371.42489242 335.22828758 371.40473449 C327.46995775 371.3822637 319.71162455 371.37135415 311.9532702 371.36134362 C296.01423315 371.34052238 280.07528601 371.30389152 264.1362915 371.26069641 C264.1362915 389.08069641 264.1362915 406.90069641 264.1362915 425.26069641 C270.56174438 425.22927551 270.56174438 425.22927551 277.11700439 425.19721985 C291.30626732 425.13079488 305.49553656 425.0864948 319.68491459 425.05344772 C328.28377817 425.03288557 336.8824937 425.00488753 345.48126221 424.9589386 C352.98224874 424.9188752 360.48312797 424.89321756 367.98421854 424.88434243 C371.95032356 424.87916042 375.91612178 424.86711603 379.88212776 424.83777618 C383.62748704 424.81029739 387.3724179 424.80231561 391.11786842 424.80826569 C393.12248882 424.8066683 395.12706431 424.78531761 397.13156128 424.76301575 C411.93489353 424.82907208 425.70279239 428.28579939 436.8862915 438.44819641 C446.94742598 449.15153096 448.71439516 461.15574456 448.4487915 475.16694641 C448.20053779 480.87678192 447.12997163 485.36110191 444.1362915 490.26069641 C443.70058838 491.03284485 443.26488525 491.80499329 442.815979 492.60054016 C437.12026708 501.95333488 428.89398046 508.38376865 418.45938849 511.81156421 C415.19961879 512.44178652 411.97641767 512.40041206 408.66986465 512.39212418 C407.53194963 512.39520313 407.53194963 512.39520313 406.37104642 512.39834428 C403.8144461 512.40402454 401.25789948 512.40255576 398.70129395 512.40113831 C396.85563207 512.40372135 395.00997075 512.40673434 393.16431022 512.41014171 C388.08088466 512.41822204 382.99747321 512.42000185 377.914042 512.42073917 C372.43605831 512.42258792 366.95808198 512.43013434 361.48010254 512.43687439 C349.49671435 512.45046538 337.5133295 512.45648357 325.52993488 512.46088505 C318.05020641 512.46364607 310.57047924 512.46788315 303.09075165 512.47238922 C282.38930978 512.48458268 261.68786888 512.49491737 240.98642349 512.49826431 C239.64769939 512.49848595 238.30897529 512.49870773 236.97025119 512.49892966 C235.62829096 512.4991503 234.28633073 512.49937079 232.94437051 512.49959111 C230.25215928 512.50003367 227.55994805 512.50048078 224.86773682 512.50093079 C224.20022491 512.50104018 223.532713 512.50114957 222.84497346 512.50126227 C201.19879783 512.50489325 179.55265568 512.52081495 157.90649288 512.54412115 C135.02202298 512.56871559 112.13756654 512.58243024 89.25308204 512.58363223 C76.77791751 512.58454969 64.30279682 512.59031975 51.82764435 512.60845184 C41.20580786 512.62383562 30.58402877 512.62898346 19.96218327 512.62071374 C14.54150787 512.61680119 9.12094811 512.61776637 3.70028687 512.63177109 C-1.26164057 512.64447356 -6.22336503 512.64334464 -11.18529204 512.63118038 C-12.98072881 512.62921704 -14.77617979 512.63233107 -16.57159659 512.64102474 C-19.01261637 512.65209654 -21.45291721 512.64464345 -23.89391708 512.63263321 C-24.59050434 512.6402284 -25.2870916 512.6478236 -26.00478756 512.65564895 C-35.70464314 512.5526629 -45.02285145 507.67069184 -52.10198975 501.22163391 C-62.68072756 489.94561583 -64.34814689 479.26909872 -64.14105225 464.42475891 C-63.93445781 458.67094977 -62.87624929 454.19713397 -59.8637085 449.26069641 C-59.22755615 448.1198761 -59.22755615 448.1198761 -58.57855225 446.95600891 C-51.88744526 435.88492938 -42.70408082 430.04603665 -30.48205566 426.67651367 C-23.38219531 424.94361973 -16.56045566 424.85989365 -9.28265381 424.92012024 C-7.8621828 424.92096866 -6.44171048 424.92048718 -5.02124023 424.91879272 C-1.2037724 424.91793973 2.61340672 424.93545109 6.43080807 424.9565146 C10.43461033 424.97539896 14.43842081 424.97704103 18.44226074 424.98059082 C26.00677484 424.98987702 33.57115728 425.01444387 41.13561368 425.04463929 C49.75481453 425.07829062 58.37402201 425.09469616 66.9932723 425.10972559 C84.70770161 425.14099693 102.42195068 425.19596557 120.1362915 425.26069641 C120.1362915 407.44069641 120.1362915 389.62069641 120.1362915 371.26069641 C114.33913574 371.27640686 114.33913574 371.27640686 108.42486572 371.29243469 C95.62057955 371.32565274 82.81629399 371.34779947 70.01197624 371.36432076 C62.25277371 371.3746001 54.49361221 371.38859592 46.73443604 371.41157532 C39.96556192 371.43161217 33.19671755 371.44443708 26.4278146 371.4488734 C22.84916632 371.45146349 19.27060309 371.4574802 15.69198227 371.47215652 C11.68103128 371.48846996 7.67022485 371.48866956 3.65924072 371.48774719 C2.49397858 371.49493774 1.32871643 371.5021283 0.12814331 371.50953674 C-19.15981344 371.46189535 -34.73983732 367.52307934 -49.11761475 354.16694641 C-60.1394484 342.62225537 -64.34512061 328.09879413 -64.24465942 312.46469116 C-64.2493394 311.32853172 -64.25401937 310.19237228 -64.25884116 309.02178377 C-64.2707384 305.2420064 -64.26135427 301.46259515 -64.25189209 297.68281555 C-64.25431089 294.96177428 -64.26119551 292.2407482 -64.26782227 289.51971436 C-64.28111998 282.91240886 -64.27829949 276.30520596 -64.26958434 269.69789655 C-64.26279196 264.32449288 -64.26189778 258.95111784 -64.26515579 253.57771111 C-64.26561549 252.81111574 -64.26607519 252.04452038 -64.26654882 251.25469486 C-64.26750806 249.6970545 -64.2684807 248.13941415 -64.26946659 246.58177381 C-64.27800903 231.99604397 -64.26820469 217.41037082 -64.25206549 202.82465028 C-64.23866604 190.32845043 -64.24098955 177.83233421 -64.25482178 165.33613586 C-64.27090253 150.80192532 -64.27718234 136.2677644 -64.26798499 121.7335462 C-64.26702941 120.18152997 -64.26608629 118.62951373 -64.26515579 117.07749748 C-64.26469297 116.31400824 -64.26423014 115.55051899 -64.26375329 114.76389371 C-64.26117067 109.40181888 -64.26551868 104.0397757 -64.27259445 98.67770576 C-64.28103755 92.1360524 -64.2786707 85.59450693 -64.26275222 79.05286581 C-64.25490656 75.7196372 -64.25334835 72.38673555 -64.26169968 69.05348587 C-64.26993889 65.430042 -64.25956421 61.80709765 -64.24465942 58.1836853 C-64.25135159 57.14445909 -64.25804375 56.10523288 -64.26493871 55.03451496 C-64.14150934 39.48613187 -58.96543355 26.82407461 -48.28167725 15.54975891 C-34.24637085 2.26269987 -18.54449799 -0.04609798 0 0 Z " fill="#CBD5DD" transform="translate(63.86370849609375,-0.2606964111328125)"/>
<path d="M0 0 C131.34 0 262.68 0 398 0 C398 84.48 398 168.96 398 256 C266.66 256 135.32 256 0 256 C0 171.52 0 87.04 0 0 Z " fill="#5DADEB" transform="translate(57,57)"/>
<path d="M0 0 C1.42047101 0.00084842 2.84094332 0.00036694 4.26141357 -0.00132751 C8.07888141 -0.00218051 11.89606053 0.01533085 15.71346188 0.03639436 C19.71726414 0.05527872 23.72107462 0.05692079 27.72491455 0.06047058 C35.28942865 0.06975678 42.85381109 0.09432363 50.41826749 0.12451905 C59.03746834 0.15817038 67.65667582 0.17457592 76.27592611 0.18960536 C93.9903402 0.22087667 111.70463213 0.27356974 129.41894531 0.34057617 C129.41894531 1.00057617 129.41894531 1.66057617 129.41894531 2.34057617 C176.93894531 2.34057617 224.45894531 2.34057617 273.41894531 2.34057617 C273.41894531 1.68057617 273.41894531 1.02057617 273.41894531 0.34057617 C291.93510633 0.24683557 310.4512187 0.17645209 328.9675684 0.13332748 C337.56643198 0.11276533 346.16514751 0.08476729 354.76391602 0.03881836 C362.26490255 -0.00124504 369.76578178 -0.02690268 377.26687235 -0.03577781 C381.23297737 -0.04095982 385.19877559 -0.05300421 389.16478157 -0.08234406 C392.91014085 -0.10982285 396.65507171 -0.11780463 400.40052223 -0.11185455 C402.40514263 -0.11345194 404.40971812 -0.13480263 406.41421509 -0.15710449 C421.21754734 -0.09104816 434.9854462 3.36567915 446.16894531 13.52807617 C456.23007979 24.23141072 457.99704896 36.23562432 457.73144531 50.24682617 C457.48319159 55.95666168 456.41262544 60.44098168 453.41894531 65.34057617 C452.98324219 66.11272461 452.54753906 66.88487305 452.09863281 67.68041992 C446.40292089 77.03321464 438.17663427 83.46364841 427.7420423 86.89144397 C424.4822726 87.52166628 421.25907147 87.48029182 417.95251846 87.47200394 C416.81460344 87.47508289 416.81460344 87.47508289 415.65370023 87.47822404 C413.09709991 87.4839043 410.54055329 87.48243552 407.98394775 87.48101807 C406.13828588 87.48360111 404.29262456 87.4866141 402.44696403 87.49002147 C397.36353847 87.4981018 392.28012702 87.49988161 387.1966958 87.50061893 C381.71871212 87.50246768 376.24073579 87.5100141 370.76275635 87.51675415 C358.77936816 87.53034514 346.79598331 87.53636333 334.81258869 87.54076481 C327.33286022 87.54352583 319.85313305 87.54776291 312.37340546 87.55226898 C291.67196359 87.56446244 270.97052269 87.57479713 250.2690773 87.57814407 C248.9303532 87.57836571 247.5916291 87.57858749 246.252905 87.57880943 C244.91094477 87.57903007 243.56898454 87.57925055 242.22702432 87.57947087 C239.53481309 87.57991343 236.84260186 87.58036054 234.15039062 87.58081055 C233.48287872 87.58091994 232.81536681 87.58102933 232.12762726 87.58114203 C210.48145164 87.58477301 188.83530949 87.60069471 167.18914669 87.62400091 C144.30467679 87.64859535 121.42022035 87.66231 98.53573585 87.66351199 C86.06057132 87.66442945 73.58545063 87.67019951 61.11029816 87.6883316 C50.48846167 87.70371538 39.86668258 87.70886322 29.24483708 87.7005935 C23.82416168 87.69668096 18.40360192 87.69764613 12.98294067 87.71165085 C8.02101324 87.72435332 3.05928878 87.7232244 -1.90263823 87.71106014 C-3.698075 87.7090968 -5.49352598 87.71221083 -7.28894278 87.7209045 C-9.72996256 87.7319763 -12.1702634 87.72452321 -14.61126328 87.71251297 C-15.30785053 87.72010816 -16.00443779 87.72770336 -16.72213376 87.73552871 C-26.42198933 87.63254267 -35.74019764 82.7505716 -42.81933594 76.30151367 C-53.39807375 65.02549559 -55.06549309 54.34897848 -54.85839844 39.50463867 C-54.651804 33.75082953 -53.59359548 29.27701373 -50.58105469 24.34057617 C-49.94490234 23.19975586 -49.94490234 23.19975586 -49.29589844 22.03588867 C-42.60479145 10.96480914 -33.42142701 5.12591641 -21.19940186 1.75639343 C-14.09954151 0.02349949 -7.27780185 -0.06022659 0 0 Z " fill="#E1E8ED" transform="translate(54.5810546875,424.659423828125)"/>
<path d="M0 0 C47.52 0 95.04 0 144 0 C144 18.81 144 37.62 144 57 C96.48 57 48.96 57 0 57 C0 38.19 0 19.38 0 0 Z " fill="#CBD5DC" transform="translate(184,370)"/>
<path d="M0 0 C47.52 0 95.04 0 144 0 C144 9.24 144 18.48 144 28 C96.48 28 48.96 28 0 28 C0 18.76 0 9.52 0 0 Z " fill="#9AAAB4" transform="translate(184,370)"/>
<path d="M0 0 C9.57 0 19.14 0 29 0 C29 9.57 29 19.14 29 29 C19.43 29 9.86 29 0 29 C0 19.43 0 9.86 0 0 Z " fill="#F4F7F9" transform="translate(270,455)"/>
<path d="M0 0 C9.57 0 19.14 0 29 0 C29.020625 4.599375 29.04125 9.19875 29.0625 13.9375 C29.071604 15.39019287 29.08070801 16.84288574 29.09008789 18.33959961 C29.09258545 19.47405518 29.09508301 20.60851074 29.09765625 21.77734375 C29.10551147 23.52905884 29.10551147 23.52905884 29.11352539 25.31616211 C29 28 29 28 28 29 C25.92737924 29.08767112 23.85179706 29.10695873 21.77734375 29.09765625 C20.64288818 29.09515869 19.50843262 29.09266113 18.33959961 29.09008789 C16.1605603 29.07643188 16.1605603 29.07643188 13.9375 29.0625 C7.0384375 29.0315625 7.0384375 29.0315625 0 29 C0 19.43 0 9.86 0 0 Z " fill="#F3F7F9" transform="translate(327,455)"/>
<path d="M0 0 C9.57 0 19.14 0 29 0 C29 9.24 29 18.48 29 28 C19.43 28 9.86 28 0 28 C0 18.76 0 9.52 0 0 Z " fill="#F4F7F9" transform="translate(384,455)"/>
<path d="M0 0 C9.57 0 19.14 0 29 0 C29 9.24 29 18.48 29 28 C19.43 28 9.86 28 0 28 C0 18.76 0 9.52 0 0 Z " fill="#F4F7F9" transform="translate(213,455)"/>
<path d="M0 0 C9.24 0 18.48 0 28 0 C28 9.57 28 19.14 28 29 C23.565625 29.020625 19.13125 29.04125 14.5625 29.0625 C13.16201416 29.071604 11.76152832 29.08070801 10.31860352 29.09008789 C9.22475342 29.09258545 8.13090332 29.09508301 7.00390625 29.09765625 C5.87799072 29.10289307 4.7520752 29.10812988 3.59204102 29.11352539 C1 29 1 29 0 28 C-0.08767112 25.92737924 -0.10695873 23.85179706 -0.09765625 21.77734375 C-0.09515869 20.64288818 -0.09266113 19.50843262 -0.09008789 18.33959961 C-0.08098389 16.88690674 -0.07187988 15.43421387 -0.0625 13.9375 C-0.041875 9.338125 -0.02125 4.73875 0 0 Z " fill="#F4F7F9" transform="translate(100,455)"/>
<path d="M0 0 C9.24 0 18.48 0 28 0 C28 9.24 28 18.48 28 28 C18.76 28 9.52 28 0 28 C0 18.76 0 9.52 0 0 Z " fill="#F4F7F9" transform="translate(441,455)"/>
<path d="M0 0 C9.24 0 18.48 0 28 0 C28 9.24 28 18.48 28 28 C18.76 28 9.52 28 0 28 C0 18.76 0 9.52 0 0 Z " fill="#F4F7F9" transform="translate(157,455)"/>
<path d="M0 0 C9.24 0 18.48 0 28 0 C28 9.24 28 18.48 28 28 C18.76 28 9.52 28 0 28 C0 18.76 0 9.52 0 0 Z " fill="#F4F7F9" transform="translate(43,455)"/>
</svg>
